<mxfile host="" modified="2021-02-20T06:47:48.623Z" agent="5.0 (Macintosh; Intel Mac OS X 10_15_7) AppleWebKit/537.36 (KHTML, like Gecko) Chrome/84.0.4147.105 Safari/537.36" version="13.7.9" etag="VhUXfOhsTEQg1z6v8okF" type="embed"><diagram id="DvzMTWxJFfeFB8-FOzpq" name="Page-1"><mxGraphModel dx="605" dy="1128" grid="1" gridSize="10" guides="1" tooltips="1" connect="1" arrows="1" fold="1" page="1" pageScale="1" pageWidth="850" pageHeight="1100" math="0" shadow="0"><root><mxCell id="0"/><mxCell id="1" parent="0"/><mxCell id="21" value="&lt;p style=&quot;margin: 0px ; margin-top: 4px ; text-align: center&quot;&gt;&lt;i&gt;&amp;lt;&amp;lt;Interface&amp;gt;&amp;gt;&lt;/i&gt;&lt;br&gt;&lt;b&gt;IReportUser&lt;/b&gt;&lt;br&gt;&lt;/p&gt;&lt;p style=&quot;margin: 0px ; margin-left: 4px&quot;&gt;&lt;br&gt;&lt;/p&gt;&lt;hr size=&quot;1&quot;&gt;&lt;p style=&quot;margin: 0px ; margin-left: 4px&quot;&gt;+ getReportUser(): String&lt;/p&gt;" style="verticalAlign=top;align=left;overflow=fill;fontSize=12;fontFamily=Helvetica;html=1;" vertex="1" parent="1"><mxGeometry x="50" y="440" width="190" height="90" as="geometry"/></mxCell><mxCell id="13" value="UserComponent" style="swimlane;fontStyle=1;align=center;verticalAlign=top;childLayout=stackLayout;horizontal=1;startSize=26;horizontalStack=0;resizeParent=1;resizeParentMax=0;resizeLast=0;collapsible=1;marginBottom=0;" vertex="1" parent="1"><mxGeometry x="280" y="440" width="160" height="150" as="geometry"/></mxCell><mxCell id="14" value="- children: Component[]" style="text;strokeColor=none;fillColor=none;align=left;verticalAlign=top;spacingLeft=4;spacingRight=4;overflow=hidden;rotatable=0;points=[[0,0.5],[1,0.5]];portConstraint=eastwest;" vertex="1" parent="13"><mxGeometry y="26" width="160" height="26" as="geometry"/></mxCell><mxCell id="15" value="" style="line;strokeWidth=1;fillColor=none;align=left;verticalAlign=middle;spacingTop=-1;spacingLeft=3;spacingRight=3;rotatable=0;labelPosition=right;points=[];portConstraint=eastwest;" vertex="1" parent="13"><mxGeometry y="52" width="160" height="8" as="geometry"/></mxCell><mxCell id="16" value="+ getName(): String&#10;+ getAge(): Int&#10;+ report(): String" style="text;strokeColor=none;fillColor=none;align=left;verticalAlign=top;spacingLeft=4;spacingRight=4;overflow=hidden;rotatable=0;points=[[0,0.5],[1,0.5]];portConstraint=eastwest;" vertex="1" parent="13"><mxGeometry y="60" width="160" height="90" as="geometry"/></mxCell><mxCell id="26" value="&lt;p style=&quot;margin: 0px ; margin-top: 4px ; text-align: center&quot;&gt;&lt;b&gt;ReportUser&lt;/b&gt;&lt;/p&gt;&lt;p style=&quot;margin: 0px ; margin-left: 4px&quot;&gt;&lt;br&gt;&lt;/p&gt;&lt;hr size=&quot;1&quot;&gt;&lt;p style=&quot;margin: 0px ; margin-left: 4px&quot;&gt;...&lt;/p&gt;" style="verticalAlign=top;align=left;overflow=fill;fontSize=12;fontFamily=Helvetica;html=1;" vertex="1" parent="1"><mxGeometry x="50" y="680" width="160" height="80" as="geometry"/></mxCell><mxCell id="27" value="" style="endArrow=block;dashed=1;endFill=0;endSize=12;html=1;exitX=0.45;exitY=-0.04;exitDx=0;exitDy=0;exitPerimeter=0;" edge="1" parent="1" source="26"><mxGeometry width="160" relative="1" as="geometry"><mxPoint x="230" y="550" as="sourcePoint"/><mxPoint x="362" y="594" as="targetPoint"/><Array as="points"><mxPoint x="122" y="620"/><mxPoint x="362" y="620"/></Array></mxGeometry></mxCell><mxCell id="28" value="" style="endArrow=block;dashed=1;endFill=0;endSize=12;html=1;exitX=0.456;exitY=-0.03;exitDx=0;exitDy=0;exitPerimeter=0;entryX=0.379;entryY=1.033;entryDx=0;entryDy=0;entryPerimeter=0;" edge="1" parent="1" source="26" target="21"><mxGeometry width="160" relative="1" as="geometry"><mxPoint x="230" y="550" as="sourcePoint"/><mxPoint x="390" y="550" as="targetPoint"/></mxGeometry></mxCell><mxCell id="29" value="&lt;p style=&quot;margin: 0px ; margin-top: 4px ; text-align: center&quot;&gt;&lt;b&gt;EmployeeUser&lt;/b&gt;&lt;/p&gt;&lt;p style=&quot;margin: 0px ; margin-left: 4px&quot;&gt;&lt;br&gt;&lt;/p&gt;&lt;hr size=&quot;1&quot;&gt;&lt;p style=&quot;margin: 0px ; margin-left: 4px&quot;&gt;...&lt;/p&gt;" style="verticalAlign=top;align=left;overflow=fill;fontSize=12;fontFamily=Helvetica;html=1;" vertex="1" parent="1"><mxGeometry x="280" y="680" width="160" height="80" as="geometry"/></mxCell><mxCell id="30" value="&lt;p style=&quot;margin: 0px ; margin-top: 4px ; text-align: center&quot;&gt;&lt;b&gt;MembertUser&lt;/b&gt;&lt;/p&gt;&lt;p style=&quot;margin: 0px ; margin-left: 4px&quot;&gt;&lt;br&gt;&lt;/p&gt;&lt;hr size=&quot;1&quot;&gt;&lt;p style=&quot;margin: 0px ; margin-left: 4px&quot;&gt;...&lt;/p&gt;" style="verticalAlign=top;align=left;overflow=fill;fontSize=12;fontFamily=Helvetica;html=1;" vertex="1" parent="1"><mxGeometry x="480" y="680" width="160" height="80" as="geometry"/></mxCell><mxCell id="31" value="" style="endArrow=block;dashed=1;endFill=0;endSize=12;html=1;exitX=0.5;exitY=0;exitDx=0;exitDy=0;" edge="1" parent="1" source="29"><mxGeometry width="160" relative="1" as="geometry"><mxPoint x="360" y="670" as="sourcePoint"/><mxPoint x="360" y="590" as="targetPoint"/></mxGeometry></mxCell><mxCell id="32" value="" style="endArrow=block;dashed=1;endFill=0;endSize=12;html=1;exitX=0.5;exitY=0;exitDx=0;exitDy=0;" edge="1" parent="1" source="30"><mxGeometry width="160" relative="1" as="geometry"><mxPoint x="230" y="550" as="sourcePoint"/><mxPoint x="360" y="590" as="targetPoint"/><Array as="points"><mxPoint x="560" y="620"/><mxPoint x="360" y="620"/></Array></mxGeometry></mxCell></root></mxGraphModel></diagram></mxfile>